<svg id="图层_1" data-name="图层 1" xmlns="http://www.w3.org/2000/svg" viewBox="0 0 810.2 180.25"><defs><style>.cls-1{fill:#fff;}</style></defs><title>DIMLAB bold</title><rect class="cls-1" x="201.33" y="9.41" width="12.92" height="161.9"/><path class="cls-1" d="M307.05,579.47h-6.92V423.57h6.92Z" transform="translate(-95.8 -411.16)"/><polygon class="cls-1" points="368.61 172.89 368.61 42.43 321.12 120.69 314.59 120.69 266.89 42.39 266.89 172.89 254.16 172.89 254.16 8.63 262.01 8.63 317.75 100.79 373.49 8.63 381.34 8.63 381.34 172.89 368.61 172.89"/><path class="cls-1" d="M474.14,422.78V581h-6.73V442.86l-52.17,86h-3.16l-52.38-86V581H353V422.78h3.15l57.43,95,57.44-95Z" transform="translate(-95.8 -411.16)"/><polygon class="cls-1" points="418.77 175.2 418.77 6.66 431.99 6.66 431.99 162.06 507.36 162.06 507.36 175.2 418.77 175.2"/><path class="cls-1" d="M524.8,576.22h75.37v7.14H517.58V420.82h7.22Z" transform="translate(-95.8 -411.16)"/><path class="cls-1" d="M752.06,586.36l-16.92-43.1H654.91l-16.68,43.1h-14.1l67.23-171h7.56l67.23,171Zm-22-56.24L695,440.4l-35,89.72Z" transform="translate(-95.8 -411.16)"/><path class="cls-1" d="M737.19,540.26H652.86l-16.68,43.1h-7.65l64.87-165h3.48l64.87,165H754.1Zm-81.55-7.14h78.77L695,432.15Z" transform="translate(-95.8 -411.16)"/><polygon class="cls-1" points="692.76 172.44 692.76 3.9 802.2 3.84 806.2 8.84 791.37 16.46 704.77 16.46 704.77 159.87 800.28 159.87 802.2 172.84 692.76 172.44"/><path class="cls-1" d="M900,580.6H791.57V418.05H900l-13.51,6.57H797.57V574h97.09" transform="translate(-95.8 -411.16)"/><rect class="cls-1" x="693.08" y="82.71" width="52.55" height="12.57"/><rect class="cls-1" x="696.08" y="85.71" width="46.55" height="6.57"/><polygon class="cls-1" points="730.78 91.99 788.68 11.1 802.2 3.84 810.2 3.84 747.18 91.99 730.78 91.99"/><polygon class="cls-1" points="745.63 88.99 804.2 6.9 790.68 13.46 736.62 88.99 745.63 88.99"/><polygon class="cls-1" points="788.7 165.25 730.71 85.99 747.16 85.99 810.2 172.84 802.2 172.84 788.7 165.25"/><polygon class="cls-1" points="745.63 88.99 804.2 169.44 790.68 162.87 736.62 88.99 745.63 88.99"/><path class="cls-1" d="M95.8,475.12l86.63-64,85.86,116.28-86.62,64Zm88.31,100.07,68-50.19L180,427.38l-68,50.18Z" transform="translate(-95.8 -411.16)"/><path class="cls-1" d="M264.1,526.81l-81.8,60.4L100,475.75l81.8-60.4Zm-80.62,52.57,72.79-53.75L180.62,423.18l-72.79,53.75Z" transform="translate(-95.8 -411.16)"/><polygon class="cls-1" points="79.57 5.57 90.47 5.39 92.66 174.87 81.76 175.06 79.57 5.57"/><polygon class="cls-1" points="89.62 171.92 84.72 172 82.61 8.52 87.51 8.44 89.62 171.92"/></svg>